<?xml version="1.0" standalone="no"?>
<!DOCTYPE svg PUBLIC "-//W3C//DTD SVG 20010904//EN"
 "http://www.w3.org/TR/2001/REC-SVG-20010904/DTD/svg10.dtd">
<svg version="1.0"  xmlns="http://www.w3.org/2000/svg"
 width="920.000000pt" height="690.000000pt" viewBox="0 0 920.000000 690.000000"
 preserveAspectRatio="xMidYMid meet">
<metadata>
Created by potrace 1.16, written by Peter Selinger 2001-2019
</metadata>
<g  transform="translate(0.000000,690.000000) scale(0.100000,-0.100000)"
fill="#DA121A" stroke="none">
<path d="M3180 4793 c-416 -47 -628 -157 -747 -389 -85 -165 -108 -295 -107
-594 0 -328 28 -595 95 -934 42 -213 121 -520 176 -686 34 -102 48 -108 124
-59 60 38 61 27 -5 219 -105 304 -201 710 -248 1050 -20 146 -17 600 5 716 36
190 73 271 165 356 157 145 473 228 872 228 250 0 481 -47 609 -123 142 -85
245 -287 295 -576 9 -52 16 -112 16 -133 l0 -38 -50 0 c-54 0 -52 -3 -64 86
-9 64 -51 179 -85 232 -104 163 -262 245 -535 278 -181 22 -437 15 -556 -16
-242 -62 -402 -199 -468 -401 -62 -185 -46 -546 33 -778 51 -151 156 -317 252
-400 126 -109 301 -142 556 -105 372 53 747 204 877 351 95 108 157 297 167
511 l6 132 74 0 c64 0 73 -2 73 -18 0 -35 52 -123 93 -156 68 -56 138 -78 242
-79 100 0 156 18 226 74 44 34 92 109 110 169 7 22 25 52 40 65 30 24 118 49
143 39 15 -6 36 -54 36 -83 0 -29 48 -118 85 -159 88 -98 210 -90 311 20 22
23 51 66 64 93 l25 50 6 -46 c13 -86 55 -139 136 -169 110 -41 219 -14 306 74
l51 53 55 -59 c94 -103 165 -123 208 -59 36 54 31 78 -19 92 -67 18 -115 46
-145 86 -26 34 -28 42 -28 137 l-1 101 -29 -3 c-17 -2 -43 -11 -60 -21 -26
-15 -32 -26 -42 -83 -27 -149 -102 -238 -201 -238 -36 0 -50 6 -77 33 -44 44
-59 101 -50 197 8 89 -1 99 -64 79 -52 -17 -67 -33 -85 -97 -21 -75 -53 -129
-97 -164 -42 -34 -105 -46 -138 -28 -32 17 -59 84 -66 165 -12 125 -40 159
-130 159 -60 0 -265 -60 -282 -82 -7 -9 -13 -39 -13 -66 0 -28 -9 -69 -19 -91
-55 -121 -235 -172 -357 -100 -42 25 -84 75 -84 101 0 8 33 13 93 16 74 3 100
8 136 28 58 33 84 69 84 117 0 61 -27 101 -86 129 -132 61 -297 7 -361 -120
l-30 -58 -64 5 c-35 2 -66 7 -69 10 -3 4 -9 44 -14 91 -28 278 -130 547 -254
672 -103 105 -267 166 -527 199 -152 19 -408 18 -588 -2z m614 -502 c213 -57
340 -171 403 -364 12 -39 23 -77 23 -84 0 -9 -18 -13 -62 -13 -92 0 -101 5
-132 67 -61 124 -173 205 -328 237 -97 20 -171 20 -284 1 -205 -36 -336 -146
-390 -330 -37 -126 -14 -352 51 -490 81 -175 198 -234 460 -235 267 0 509 79
663 217 92 82 128 171 141 348 l6 90 45 -4 c25 -1 46 -4 47 -5 0 0 -3 -59 -8
-131 -27 -384 -141 -521 -536 -648 -363 -117 -629 -130 -795 -40 -194 105
-319 425 -320 813 0 140 2 163 26 236 65 202 208 308 486 358 14 2 115 3 225
1 165 -2 214 -7 279 -24z m-89 -265 c55 -14 119 -46 150 -73 28 -25 75 -83 75
-92 0 -4 -89 -6 -198 -3 -167 4 -207 2 -249 -12 -133 -44 -181 -191 -107 -327
33 -61 70 -93 144 -128 49 -23 67 -26 165 -26 143 0 218 22 285 82 60 54 91
124 98 221 l5 73 81 -3 81 -3 -2 -85 c-2 -114 -28 -182 -98 -259 -106 -113
-266 -168 -526 -178 -181 -7 -259 8 -335 65 -102 78 -161 260 -137 425 37 260
282 399 568 323z m1349 -97 c33 -26 33 -49 1 -79 -22 -21 -38 -24 -117 -28
l-91 -5 24 44 c17 31 37 51 69 67 55 27 80 28 114 1z m-1110 -185 c32 -12 15
-110 -31 -172 -42 -56 -95 -77 -193 -76 -131 1 -202 47 -202 129 0 48 25 83
75 106 35 15 66 19 189 19 80 0 153 -3 162 -6z"/>
<path d="M6370 4098 c-39 -35 -73 -73 -77 -86 -7 -29 13 -52 46 -52 47 0 241
126 241 156 0 19 -59 44 -104 44 -28 0 -48 -12 -106 -62z"/>
</g>
</svg>
